<svg xmlns="http://www.w3.org/2000/svg" viewBox="0 0 32 32" width="32" height="32">
  <defs>
    <linearGradient id="thuPurple" x1="0%" y1="0%" x2="100%" y2="100%">
      <stop offset="0%" style="stop-color:#82318E;stop-opacity:1" />
      <stop offset="100%" style="stop-color:#6B2C7D;stop-opacity:1" />
    </linearGradient>
    <linearGradient id="hkuGreen" x1="0%" y1="0%" x2="100%" y2="100%">
      <stop offset="0%" style="stop-color:#00643A;stop-opacity:1" />
      <stop offset="100%" style="stop-color:#005A33;stop-opacity:1" />
    </linearGradient>
    <linearGradient id="uqPurple" x1="0%" y1="0%" x2="100%" y2="100%">
      <stop offset="0%" style="stop-color:#51247A;stop-opacity:1" />
      <stop offset="100%" style="stop-color:#462066;stop-opacity:1" />
    </linearGradient>
    <pattern id="umbrellaPattern" patternUnits="userSpaceOnUse" width="20" height="20">
      <g transform="translate(10,10)">
        <path d="M 0 -10 L 7.07 -7.07 L 10 0 L 7.07 7.07 L 0 10 L -7.07 7.07 L -10 0 L -7.07 -7.07 Z" fill="#ffffff"/>
        <path d="M 0 0 L 0 -9 L 6.36 -6.36 Z" fill="#cc0000"/>
        <path d="M 0 0 L 6.36 -6.36 L 9 0 Z" fill="#b0b0b0"/>
        <path d="M 0 0 L 9 0 L 6.36 6.36 Z" fill="#cc0000"/>
        <path d="M 0 0 L 6.36 6.36 L 0 9 Z" fill="#b0b0b0"/>
        <path d="M 0 0 L 0 9 L -6.36 6.36 Z" fill="#cc0000"/>
        <path d="M 0 0 L -6.36 6.36 L -9 0 Z" fill="#b0b0b0"/>
        <path d="M 0 0 L -9 0 L -6.36 -6.36 Z" fill="#cc0000"/>
        <path d="M 0 0 L -6.36 -6.36 L 0 -9 Z" fill="#b0b0b0"/>
      </g>
    </pattern>
    <mask id="wMask">
      <path d="M 4 10 L 7 10 L 10 24 L 12.5 16 L 14 16 L 16 16 L 18 16 L 19.5 16 L 22 24 L 25 10 L 28 10 L 23 26 L 19 26 L 16 18 L 13 26 L 9 26 Z" fill="white"/>
    </mask>
  </defs>
  
  <g>
    <path d="M 0 0 L 11 0 L 11 32 L 0 32 Z" fill="url(#thuPurple)"/>
    <path d="M 11 0 L 21 0 L 21 32 L 11 32 Z" fill="url(#hkuGreen)"/>
    <path d="M 21 0 L 32 0 L 32 32 L 21 32 Z" fill="url(#uqPurple)"/>
  </g>
  
  <g fill="#ffffff" opacity="0.25">
    <text x="2" y="8" font-family="monospace" font-size="5" fill="#ffffff">01</text>
    <path d="M 2 26 L 2 30 L 9 30" stroke="#ffffff" stroke-width="0.5" fill="none"/>
    <circle cx="3" cy="29" r="0.3"/>
    
    <path d="M 12 4 L 14 6 L 16 4 L 18 6 L 20 4" stroke="#ffffff" stroke-width="0.8" fill="none"/>
    <path d="M 13 28 L 13 30 M 15 27 L 15 30 M 17 29 L 17 30 M 19 26 L 19 30" stroke="#ffffff" stroke-width="0.5"/>
    
    <path d="M 23 5 Q 24 6 25 5 T 27 5 Q 28 6 29 5" stroke="#ffffff" stroke-width="0.8" fill="none"/>
    <path d="M 23 5 Q 24 7 25 5 T 27 5 Q 28 7 29 5" stroke="#ffffff" stroke-width="0.8" fill="none"/>
    <circle cx="24" cy="28" r="1" stroke="#ffffff" stroke-width="0.5" fill="none"/>
    <circle cx="24" cy="28" r="0.3"/>
    <circle cx="28" cy="29" r="1" stroke="#ffffff" stroke-width="0.5" fill="none"/>
    <circle cx="28" cy="29" r="0.3"/>
  </g>
  
  <g filter="drop-shadow(0 1px 2px rgba(0,0,0,0.3))">
    <rect x="0" y="0" width="32" height="32" fill="url(#umbrellaPattern)" mask="url(#wMask)"/>
    <path d="M 4 10 L 7 10 L 10 24 L 12.5 16 L 14 16 L 16 16 L 18 16 L 19.5 16 L 22 24 L 25 10 L 28 10 L 23 26 L 19 26 L 16 18 L 13 26 L 9 26 Z" 
          stroke="#ffffff" 
          stroke-width="0.5" 
          stroke-linejoin="round"
          fill="none"/>
  </g>
</svg>